<svg width="46" height="39" viewBox="0 0 46 39" fill="none" xmlns="http://www.w3.org/2000/svg">
<path d="M45.2445 26.4506C45.2445 33.3703 39.635 38.9799 32.7153 38.9799L13.9214 38.9799C11.9992 38.9799 10.441 37.4217 10.441 35.4995L10.441 11.8331C10.441 7.98886 13.5574 4.87245 17.4017 4.87245L41.7642 4.87246C43.6863 4.87246 45.2445 6.43066 45.2445 8.3528L45.2445 26.4506Z" fill="#E8F5E9"/>
<path d="M18.7357 13.2328C18.5185 13.2328 18.3419 13.0565 18.3419 12.8391V12.1699C18.3419 11.9527 18.5182 11.7762 18.7357 11.7762C18.9529 11.7762 19.1294 11.9525 19.1294 12.1699V12.8391C19.1294 13.0565 18.9529 13.2328 18.7357 13.2328Z" fill="#103E13"/>
<path d="M17.0801 13.2328C16.863 13.2328 16.6864 13.0565 16.6864 12.8391V12.1699C16.6864 11.9527 16.8627 11.7762 17.0801 11.7762C17.2973 11.7762 17.4739 11.9525 17.4739 12.1699V12.8391C17.4736 13.0565 17.2976 13.2328 17.0801 13.2328Z" fill="#103E13"/>
<path d="M15.4249 13.2328C15.2077 13.2328 15.0311 13.0565 15.0311 12.8391V12.1699C15.0311 11.9527 15.2074 11.7762 15.4249 11.7762C15.6421 11.7762 15.8186 11.9525 15.8186 12.1699V12.8391C15.8186 13.0565 15.6423 13.2328 15.4249 13.2328Z" fill="#103E13"/>
<path d="M18.7357 15.9692C18.5185 15.9692 18.3419 15.7929 18.3419 15.5755V14.9066C18.3419 14.6894 18.5182 14.5128 18.7357 14.5128C18.9529 14.5128 19.1294 14.6891 19.1294 14.9066V15.5755C19.1294 15.7929 18.9529 15.9692 18.7357 15.9692Z" fill="#103E13"/>
<path d="M17.0801 15.9692C16.863 15.9692 16.6864 15.7929 16.6864 15.5755V14.9066C16.6864 14.6894 16.8627 14.5128 17.0801 14.5128C17.2973 14.5128 17.4739 14.6891 17.4739 14.9066V15.5755C17.4736 15.7929 17.2976 15.9692 17.0801 15.9692Z" fill="#103E13"/>
<path d="M15.4249 15.9692C15.2077 15.9692 15.0311 15.7929 15.0311 15.5755V14.9066C15.0311 14.6894 15.2074 14.5128 15.4249 14.5128C15.6421 14.5128 15.8186 14.6891 15.8186 14.9066V15.5755C15.8186 15.7929 15.6423 15.9692 15.4249 15.9692Z" fill="#103E13"/>
<path d="M18.7357 18.7057C18.5185 18.7057 18.3419 18.5294 18.3419 18.3119V17.6428C18.3419 17.4256 18.5182 17.249 18.7357 17.249C18.9529 17.249 19.1294 17.4253 19.1294 17.6428V18.3119C19.1294 18.5294 18.9529 18.7057 18.7357 18.7057Z" fill="#103E13"/>
<path d="M17.0801 18.7057C16.863 18.7057 16.6864 18.5294 16.6864 18.3119V17.6428C16.6864 17.4256 16.8627 17.249 17.0801 17.249C17.2973 17.249 17.4739 17.4253 17.4739 17.6428V18.3119C17.4736 18.5294 17.2976 18.7057 17.0801 18.7057Z" fill="#103E13"/>
<path d="M15.4249 18.7057C15.2077 18.7057 15.0311 18.5294 15.0311 18.3119V17.6428C15.0311 17.4256 15.2074 17.249 15.4249 17.249C15.6421 17.249 15.8186 17.4253 15.8186 17.6428V18.3119C15.8186 18.5294 15.6423 18.7057 15.4249 18.7057Z" fill="#103E13"/>
<path d="M18.7357 21.4415C18.5185 21.4415 18.3419 21.2653 18.3419 21.0478V20.3786C18.3419 20.1615 18.5182 19.9849 18.7357 19.9849C18.9529 19.9849 19.1294 20.1612 19.1294 20.3786V21.0478C19.1294 21.2653 18.9529 21.4415 18.7357 21.4415Z" fill="#103E13"/>
<path d="M17.0801 21.4415C16.863 21.4415 16.6864 21.2653 16.6864 21.0478V20.3786C16.6864 20.1615 16.8627 19.9849 17.0801 19.9849C17.2973 19.9849 17.4739 20.1612 17.4739 20.3786V21.0478C17.4736 21.2653 17.2976 21.4415 17.0801 21.4415Z" fill="#103E13"/>
<path d="M15.4249 21.4415C15.2077 21.4415 15.0311 21.2653 15.0311 21.0478V20.3786C15.0311 20.1615 15.2074 19.9849 15.4249 19.9849C15.6421 19.9849 15.8186 20.1612 15.8186 20.3786V21.0478C15.8186 21.2653 15.6423 21.4415 15.4249 21.4415Z" fill="#103E13"/>
<path d="M18.7357 24.1779C18.5185 24.1779 18.3419 24.0016 18.3419 23.7841V23.1153C18.3419 22.8981 18.5182 22.7215 18.7357 22.7215C18.9529 22.7215 19.1294 22.8978 19.1294 23.1153V23.7841C19.1294 24.0013 18.9529 24.1779 18.7357 24.1779Z" fill="#103E13"/>
<path d="M17.0801 24.1779C16.863 24.1779 16.6864 24.0016 16.6864 23.7841V23.1153C16.6864 22.8981 16.8627 22.7215 17.0801 22.7215C17.2973 22.7215 17.4739 22.8978 17.4739 23.1153V23.7841C17.4736 24.0013 17.2976 24.1779 17.0801 24.1779Z" fill="#103E13"/>
<path d="M15.4249 24.1779C15.2077 24.1779 15.0311 24.0016 15.0311 23.7841L15.0314 23.1153C15.0314 22.8981 15.2077 22.7215 15.4252 22.7215C15.6423 22.7215 15.8189 22.8978 15.8189 23.1153V23.7841C15.8186 24.0013 15.6423 24.1779 15.4249 24.1779Z" fill="#103E13"/>
<path d="M4.17672 26.9011C4.17672 27.1183 4.353 27.2948 4.57047 27.2948H28.5485C28.7657 27.2948 28.9422 27.1186 28.9422 26.9011C28.9422 26.6839 28.766 26.5073 28.5485 26.5073H27.8206V15.2023C27.8206 14.9851 27.6443 14.8085 27.4269 14.8085L20.9982 14.8088V6.65843C20.9982 6.52059 20.9262 6.39319 20.8087 6.32179C20.6915 6.25013 20.5448 6.24574 20.4229 6.30916L13.114 10.1146C12.9835 10.1824 12.9023 10.3169 12.9023 10.4638V17.583H5.82878C5.61159 17.583 5.43503 17.7593 5.43503 17.9768V26.5074H4.56959C4.3524 26.5071 4.17639 26.6834 4.17639 26.9009L4.17672 26.9011ZM20.9983 20.7723H27.0335V26.5077L20.9983 26.5074V20.7723ZM20.9983 18.0361H27.0335V19.9851L20.9983 19.9848V18.0361ZM20.9983 15.5959H27.0335V17.2491H20.9983V15.5959ZM13.6893 10.7029L20.2106 7.30746V26.507H13.6893V10.7029ZM8.16896 23.3625C8.16896 22.5454 8.81641 21.8803 9.61241 21.8803C10.4084 21.8803 11.0561 22.5451 11.0561 23.3625V26.5075H8.16896V23.3625ZM6.2225 18.3704H12.9021V26.5074H11.8436V23.3624C11.8436 22.1111 10.8431 21.093 9.61241 21.093C8.3823 21.093 7.38176 22.1108 7.38176 23.3624V26.5074H6.2225V18.3704Z" fill="#103E13"/>
</svg>
