<svg width="24" height="27" viewBox="0 0 24 27" fill="none" xmlns="http://www.w3.org/2000/svg">
<path d="M22.9703 25.7546V22.9703C22.9703 21.4934 22.3836 20.077 21.3393 19.0327C20.295 17.9884 18.8786 17.4017 17.4017 17.4017H16.0096C15.6404 17.4017 15.2863 17.2551 15.0252 16.994C14.7641 16.7329 14.6174 16.3788 14.6174 16.0096V9.04891C14.6174 8.31047 14.3241 7.60228 13.8019 7.08013C13.2798 6.55797 12.5716 6.26463 11.8332 6.26463C11.0947 6.26463 10.3865 6.55797 9.86438 7.08013C9.34222 7.60228 9.04888 8.31047 9.04888 9.04891V21.5782L5.70775 17.1233C5.4484 16.7775 5.1121 16.4969 4.72549 16.3035C4.33888 16.1102 3.91257 16.0096 3.48032 16.0096H2.87613C1.67193 16.0096 0.696045 16.9855 0.696045 18.1897C0.696045 18.5851 0.80324 18.9735 1.00649 19.3118L4.87246 25.7546M11.8332 2.08821V0.696075V2.08821ZM20.186 10.441H21.5781H20.186ZM2.08818 10.441H3.48032H2.08818ZM5.34997 3.95786L4.36572 2.97361L5.34997 3.95786ZM18.3163 3.95786L19.3006 2.97361L18.3163 3.95786Z" fill="#4CAF4F"/>
<path d="M22.9703 25.7546V22.9703C22.9703 21.4934 22.3836 20.077 21.3393 19.0327C20.295 17.9884 18.8786 17.4017 17.4017 17.4017H16.0096C15.6404 17.4017 15.2863 17.2551 15.0252 16.994C14.7641 16.7329 14.6174 16.3788 14.6174 16.0096V9.04891C14.6174 8.31047 14.3241 7.60228 13.8019 7.08013C13.2798 6.55797 12.5716 6.26463 11.8332 6.26463V6.26463C11.0947 6.26463 10.3865 6.55797 9.86438 7.08013C9.34222 7.60228 9.04888 8.31047 9.04888 9.04891V21.5782L5.70775 17.1233C5.4484 16.7775 5.1121 16.4969 4.72549 16.3035C4.33888 16.1102 3.91257 16.0096 3.48032 16.0096H2.87613C1.67193 16.0096 0.696045 16.9855 0.696045 18.1897C0.696045 18.5851 0.80324 18.9735 1.00649 19.3118L4.87246 25.7546M11.8332 2.08821V0.696075M20.186 10.441H21.5781M2.08818 10.441H3.48032M5.34997 3.95786L4.36572 2.97361M18.3163 3.95786L19.3006 2.97361" stroke="#4CAF4F" stroke-width="1.39214" stroke-linecap="round" stroke-linejoin="round"/>
</svg>
