<svg width="46" height="39" viewBox="0 0 46 39" fill="none" xmlns="http://www.w3.org/2000/svg">
<path d="M45.2445 26.4506C45.2445 33.3703 39.635 38.9799 32.7153 38.9799L13.9214 38.9799C11.9992 38.9799 10.441 37.4217 10.441 35.4995L10.441 11.8331C10.441 7.98886 13.5574 4.87245 17.4017 4.87245L41.7642 4.87246C43.6863 4.87246 45.2445 6.43066 45.2445 8.3528L45.2445 26.4506Z" fill="#E8F5E9"/>
<path d="M19.7069 16.4583C19.5393 16.4583 19.3837 16.4122 19.2454 16.3381V16.34C19.2454 16.6037 19.1429 16.8514 18.957 17.0369C18.771 17.2228 18.5235 17.3253 18.2601 17.3253C18.0901 17.3253 17.9325 17.2781 17.7928 17.202C17.7786 17.4432 17.6822 17.6687 17.5102 17.8409C17.3242 18.0269 17.0768 18.1294 16.8132 18.1294C16.2896 18.1294 15.8643 17.7178 15.8337 17.2018C15.6717 17.2894 15.4885 17.3353 15.2995 17.3232C14.7844 17.2894 14.381 16.8443 14.381 16.3097V11.8781L13.8764 12.7523C13.6842 13.0867 13.3244 13.2943 12.937 13.2943C12.7483 13.2943 12.5618 13.2448 12.3967 13.1502C12.191 13.0309 12.0439 12.8396 11.9828 12.6106C11.9213 12.3815 11.9531 12.1419 12.072 11.9366C12.0721 11.9366 13.7231 9.07768 13.8238 8.90207C13.8357 8.87567 13.8699 8.79908 13.8989 8.73381C13.9266 8.6715 13.9504 8.60754 13.9732 8.54325C14.471 7.13769 15.7038 6.26459 17.1905 6.26459C19.1212 6.26459 20.6919 7.9678 20.6919 10.0614L20.6921 15.4729C20.6921 15.7362 20.5898 15.9837 20.404 16.1698C20.218 16.3558 19.9705 16.4583 19.7069 16.4583L19.7069 16.4583ZM17.1906 6.78813C15.9131 6.78813 14.8948 7.50972 14.4666 8.71834C14.4393 8.79509 14.4107 8.87184 14.3774 8.94662C14.2808 9.16326 14.2808 9.16326 14.2536 9.19441L14.25 9.1913C14.1152 9.44565 13.7147 10.1392 12.5253 12.1986C12.4764 12.2831 12.4635 12.3811 12.4884 12.4749C12.5137 12.5687 12.5742 12.6478 12.658 12.6961C12.9181 12.8455 13.2743 12.7491 13.4225 12.4908L14.4161 10.7705C14.4755 10.668 14.5955 10.6177 14.7107 10.6489C14.8251 10.6795 14.9047 10.7833 14.9047 10.9017V16.3099C14.9047 16.565 15.0972 16.7853 15.3339 16.8008C15.4703 16.8081 15.5976 16.7623 15.6932 16.6669C15.7801 16.5799 15.828 16.4642 15.828 16.3403V12.8034C15.828 12.6587 15.9452 12.5415 16.0899 12.5415C16.2345 12.5415 16.3518 12.6586 16.3518 12.8034L16.3516 17.1443C16.3516 17.3988 16.5587 17.6059 16.8132 17.6059C16.9369 17.6059 17.053 17.5581 17.1401 17.4711C17.227 17.3841 17.2749 17.268 17.2749 17.1443V12.8034C17.2749 12.6587 17.392 12.5415 17.5368 12.5415C17.6814 12.5415 17.7987 12.6586 17.7987 12.8034L17.7985 16.2997V16.3403C17.7985 16.5947 18.0056 16.8018 18.2603 16.8018C18.3838 16.8018 18.4996 16.7538 18.5871 16.6665C18.6741 16.5798 18.7219 16.464 18.7219 16.3402V12.8032C18.7219 12.6585 18.839 12.5413 18.9838 12.5413C19.1285 12.5413 19.2457 12.6584 19.2457 12.8032L19.2454 15.473C19.2454 15.7277 19.4525 15.9348 19.7069 15.9348C19.8307 15.9348 19.9465 15.8867 20.0334 15.8C20.1206 15.7127 20.1683 15.5966 20.1683 15.473L20.1685 10.0615C20.1685 8.25677 18.8326 6.78819 17.1905 6.78819L17.1906 6.78813Z" fill="#103E13"/>
<path d="M9.4172 20.2195L13.2175 17.9396C13.6757 17.6644 14.2653 17.7814 14.5592 18.2059C14.6664 18.3606 14.7212 18.5408 14.7297 18.7243C14.8714 18.6504 15.0256 18.6102 15.1825 18.6102C15.2629 18.6102 15.3435 18.6202 15.4232 18.64C15.6786 18.7038 15.8937 18.8634 16.029 19.089C16.1645 19.315 16.204 19.5799 16.1402 19.8349C16.0814 20.0709 15.9379 20.2695 15.7383 20.4058C15.8778 20.4881 15.9982 20.6004 16.0838 20.7434C16.2193 20.9694 16.2588 21.2341 16.1952 21.4894C16.1314 21.7445 15.9718 21.9596 15.7458 22.0953L15.7445 22.0961C15.8816 22.1782 15.9999 22.2894 16.0845 22.4303C16.2201 22.6563 16.2596 22.9211 16.1958 23.1764C16.1319 23.4316 15.9723 23.6468 15.7467 23.7822L11.1064 26.566C10.2403 27.0854 9.23914 27.2646 8.28766 27.0703C7.32765 26.8742 6.5326 26.3224 6.04917 25.5165C5.28414 24.2414 5.39879 22.735 6.34781 21.5852C6.39127 21.5328 6.43407 21.4793 6.47293 21.4239C6.5141 21.3653 6.56215 21.2964 6.57854 21.2728C6.67677 21.0973 8.27966 18.2094 8.27949 18.2098C8.44135 17.9177 8.74473 17.7524 9.05763 17.7525C9.20358 17.7525 9.35167 17.7885 9.48828 17.8642C9.65326 17.9564 9.79183 18.0907 9.88875 18.2526C10.088 18.5846 10.0951 19.0002 9.90745 19.3365L9.4172 20.2195ZM9.44 18.5218C9.38916 18.437 9.3193 18.3694 9.23386 18.3215C9.05724 18.2238 8.83486 18.2874 8.73763 18.4634C7.59068 20.5297 7.1997 21.2339 7.04881 21.4845L7.05226 21.4853C7.03963 21.5273 7.03963 21.5273 6.90155 21.7246C6.85465 21.7913 6.80365 21.8554 6.75166 21.9186C5.93562 22.9073 5.84086 24.1515 6.49797 25.2471C6.90499 25.9257 7.5777 26.391 8.39224 26.5572C9.21563 26.7247 10.0835 26.5689 10.8367 26.1169L15.4774 23.333C15.5834 23.2696 15.6581 23.1687 15.688 23.0492C15.7178 22.9298 15.6993 22.8056 15.6357 22.6997C15.5048 22.4816 15.2206 22.4099 15.0025 22.5413L12.7132 23.9147C12.5892 23.9892 12.4282 23.9492 12.3539 23.825C12.2794 23.701 12.3196 23.5402 12.4436 23.4657L14.7331 22.0923L15.4766 21.6462C15.5826 21.5826 15.6575 21.4817 15.6873 21.3625C15.7172 21.2429 15.6987 21.1186 15.635 21.0129C15.504 20.7946 15.2198 20.7236 15.0019 20.8544L11.9688 22.6739C11.8445 22.7486 11.684 22.7082 11.6095 22.5842C11.5351 22.4603 11.5754 22.2994 11.6992 22.2249L15.4217 19.9919C15.5276 19.9282 15.6024 19.8275 15.6322 19.708C15.6621 19.5886 15.6436 19.4645 15.5801 19.3585C15.5166 19.2528 15.4158 19.178 15.2962 19.1481C15.176 19.1183 15.0524 19.1368 14.9468 19.2001L14.2577 19.6135C14.2575 19.6135 14.2575 19.6137 14.2573 19.6137H14.2572L11.2243 21.4332C11.1 21.508 10.9393 21.4676 10.865 21.3435C10.7905 21.2195 10.8309 21.0587 10.9547 20.9842L13.9877 19.1647C14.0937 19.1011 14.1686 19.0002 14.1985 18.881C14.2313 18.7501 14.2063 18.6163 14.1286 18.5041C13.9938 18.3091 13.7055 18.2573 13.4869 18.3887L8.84957 21.1707C8.74805 21.2313 8.61801 21.2166 8.53289 21.1344C8.44762 21.0521 8.42843 20.9227 8.48583 20.8192L9.45011 19.0819C9.54687 18.9082 9.5431 18.6937 9.43995 18.5218L9.44 18.5218Z" fill="#103E13"/>
<path d="M27.577 25.5163C27.0937 26.3223 26.2989 26.874 25.3387 27.0701C24.387 27.2641 23.3862 27.0852 22.52 26.5658L17.8793 23.7819C17.6535 23.6465 17.4937 23.4313 17.4298 23.1758C17.3663 22.9208 17.406 22.6559 17.5413 22.4303C17.6257 22.2892 17.7441 22.178 17.8814 22.0959L17.8801 22.0951C17.6543 21.9596 17.4946 21.7444 17.4309 21.4893C17.367 21.2341 17.4067 20.9691 17.5421 20.7431C17.6294 20.598 17.7489 20.4845 17.8854 20.404C17.6873 20.2677 17.5446 20.0698 17.4859 19.8349C17.4219 19.5796 17.4616 19.3147 17.5971 19.0891C17.7324 18.8632 17.9477 18.7037 18.2029 18.6399C18.2826 18.6199 18.3634 18.61 18.4434 18.61C18.6005 18.6102 18.7547 18.6501 18.8964 18.7242C18.9051 18.5407 18.9597 18.3604 19.0669 18.2058C19.361 17.7816 19.95 17.6641 20.4089 17.9395L24.2091 20.219L23.7193 19.3367C23.5313 18.9998 23.5382 18.5843 23.7375 18.252C23.8345 18.0903 23.9733 17.956 24.1391 17.863C24.2754 17.7876 24.423 17.7518 24.5686 17.7518C24.8813 17.752 25.185 17.917 25.3467 18.2091C25.9102 19.2244 26.9735 21.1391 27.0483 21.2728C27.0642 21.2959 27.1122 21.3648 27.1534 21.4233C27.1926 21.4789 27.2349 21.5321 27.2787 21.5849C28.2276 22.7351 28.342 24.2414 27.577 25.5163L27.577 25.5163ZM26.8747 21.9186C26.8225 21.8555 26.7713 21.791 26.7248 21.7246C26.5831 21.5236 26.5795 21.5183 26.5688 21.4657C26.4032 21.1916 25.9991 20.4642 24.8884 18.4631C24.791 18.2875 24.5696 18.2234 24.3933 18.3208C24.3065 18.3693 24.2368 18.437 24.186 18.5218C24.083 18.6935 24.0791 18.908 24.1763 19.0822L25.1403 20.819C25.1978 20.9227 25.1787 21.0519 25.0935 21.1342C25.0086 21.2167 24.8787 21.2312 24.7767 21.1705L20.1394 18.3885C19.9208 18.2575 19.6326 18.3088 19.4975 18.5039C19.4198 18.6161 19.395 18.7499 19.4275 18.8806C19.4573 19 19.5323 19.1007 19.6384 19.1643C19.6387 19.1645 19.6389 19.1648 19.6392 19.165L22.6713 20.984C22.7952 21.0585 22.8354 21.2192 22.761 21.3433C22.6865 21.4671 22.526 21.5076 22.4017 21.433L18.6792 19.1999C18.5736 19.1366 18.4493 19.1179 18.3299 19.148C18.2102 19.1778 18.1095 19.2526 18.046 19.3587C17.9824 19.4645 17.964 19.5886 17.9935 19.708C18.0234 19.8274 18.0983 19.9282 18.2043 19.9919L18.9286 20.4263L21.9266 22.225C22.0505 22.2994 22.0907 22.4601 22.0163 22.5843C21.9418 22.7081 21.7813 22.7484 21.657 22.674L18.6243 20.8545C18.4062 20.7233 18.1221 20.7945 17.9909 21.0129C17.9273 21.1188 17.9089 21.243 17.9384 21.3624C17.9683 21.4817 18.0432 21.5824 18.1493 21.6462L18.8929 22.0923L21.182 23.4657C21.306 23.5402 21.3462 23.7009 21.2717 23.825C21.1973 23.9489 21.0367 23.9895 20.9124 23.9147L18.6233 22.5413C18.5177 22.478 18.3939 22.4593 18.2738 22.4893C18.1544 22.5192 18.0534 22.5939 17.9899 22.6997C17.9265 22.8057 17.9079 22.93 17.9375 23.0492C17.9673 23.1686 18.0423 23.2693 18.1484 23.3331L22.7891 26.117C23.5421 26.5688 24.4106 26.7252 25.2335 26.5573C26.0479 26.391 26.7206 25.9257 27.1277 25.2471C27.7854 24.1513 27.6908 22.907 26.8749 21.9186L26.8747 21.9186Z" fill="#103E13"/>
</svg>
