<svg width="37" height="34" viewBox="0 0 37 34" fill="none" xmlns="http://www.w3.org/2000/svg">
<g clip-path="url(#clip0_211_2076)">
<path d="M8.59168 9.63834C7.17815 9.63834 5.82253 10.1999 4.82302 11.1994L1.56103 14.4614C0.561519 15.4609 0 16.8165 0 18.23C0 21.1736 2.38619 23.5597 5.32971 23.5597C6.74324 23.5597 8.09886 22.9982 9.09837 21.9987L11.3547 19.7423C11.3547 19.7423 11.3547 19.7424 11.3547 19.7423L17.9289 13.1682C18.4063 12.6908 19.0537 12.4226 19.7288 12.4226C20.859 12.4226 21.8172 13.1592 22.1494 14.1786L24.2242 12.1038C23.2777 10.6213 21.6181 9.63834 19.7288 9.63834C18.3153 9.63834 16.9596 10.1999 15.9601 11.1994L7.12961 20.0299C6.65224 20.5073 6.00481 20.7754 5.32971 20.7754C3.9239 20.7754 2.78428 19.6358 2.78428 18.23C2.78428 17.5549 3.05245 16.9075 3.52981 16.4301L6.79178 13.1682C7.26915 12.6908 7.91658 12.4226 8.59168 12.4226C9.72196 12.4226 10.6801 13.1593 11.0123 14.1787L13.0872 12.1038C12.1407 10.6214 10.481 9.63834 8.59168 9.63834Z" fill="#394149"/>
<path d="M18.2667 20.0299C17.7894 20.5073 17.1419 20.7755 16.4668 20.7755C15.3367 20.7755 14.3786 20.039 14.0463 19.0199L11.9716 21.0946C12.9181 22.5769 14.5777 23.5598 16.4668 23.5598C17.8804 23.5598 19.236 22.9982 20.2355 21.9987L29.066 13.1682C29.5434 12.6908 30.1908 12.4226 30.8659 12.4226C32.2717 12.4226 33.4113 13.5623 33.4113 14.9681C33.4113 15.6432 33.1432 16.2906 32.6658 16.768L29.4038 20.0299C28.9265 20.5073 28.279 20.7755 27.6039 20.7755C26.4737 20.7755 25.5156 20.0389 25.1833 19.0196L23.1086 21.0944C24.0551 22.5768 25.7147 23.5598 27.6039 23.5598C29.0175 23.5598 30.3731 22.9982 31.3726 21.9987L34.6346 18.7367C35.6341 17.7372 36.1956 16.3816 36.1956 14.9681C36.1956 12.0246 33.8094 9.63837 30.8659 9.63837C29.4524 9.63837 28.0967 10.1999 27.0972 11.1994L18.2667 20.0299Z" fill="#394149"/>
</g>
<defs>
<clipPath id="clip0_211_2076">
<rect width="36.1956" height="13.9214" fill="white" transform="translate(0 9.63834)"/>
</clipPath>
</defs>
</svg>
