<svg width="34" height="34" viewBox="0 0 34 34" fill="none" xmlns="http://www.w3.org/2000/svg">
<g clip-path="url(#clip0_211_2046)">
<path fill-rule="evenodd" clip-rule="evenodd" d="M9.74512 2.78427C13.5894 2.78427 16.7058 5.90068 16.7058 9.74497V2.78427H23.6665C27.5108 2.78427 30.6272 5.90068 30.6272 9.74497C30.6272 13.5892 27.5108 16.7057 23.6665 16.7057C27.5108 16.7057 30.6272 19.8221 30.6272 23.6664C30.6272 25.5752 29.8588 27.3046 28.6145 28.5621L28.5885 28.5883L28.5654 28.6113C27.3076 29.8574 25.5769 30.6271 23.6665 30.6271C21.7691 30.6271 20.049 29.8678 18.7933 28.6366C18.777 28.6206 18.7607 28.6045 18.7445 28.5883C18.7293 28.5731 18.7141 28.5578 18.699 28.5424C17.4662 27.2865 16.7058 25.5652 16.7058 23.6664C16.7058 27.5106 13.5894 30.6271 9.74512 30.6271C5.90083 30.6271 2.78442 27.5106 2.78442 23.6664V16.7057H9.74512C5.90083 16.7057 2.78442 13.5892 2.78442 9.74497C2.78442 5.90068 5.90083 2.78427 9.74512 2.78427ZM15.3137 9.74497C15.3137 12.8204 12.8206 15.3135 9.74512 15.3135V4.17641C12.8206 4.17641 15.3137 6.66954 15.3137 9.74497ZM29.2351 23.6664C29.2351 20.5909 26.742 18.0978 23.6665 18.0978C20.5911 18.0978 18.098 20.5909 18.098 23.6664H29.2351ZM4.17656 18.0978V23.6664C4.17656 26.7418 6.66969 29.2349 9.74512 29.2349C12.8206 29.2349 15.3137 26.7418 15.3137 23.6664V18.0978H4.17656ZM18.098 15.3135V4.17641H23.6665C26.742 4.17641 29.2351 6.66954 29.2351 9.74497C29.2351 12.8204 26.742 15.3135 23.6665 15.3135H18.098Z" fill="#263238"/>
</g>
<defs>
<clipPath id="clip0_211_2046">
<rect width="27.8428" height="27.8428" fill="white" transform="translate(2.78442 2.78427)"/>
</clipPath>
</defs>
</svg>
