<svg width="34" height="34" viewBox="0 0 34 34" fill="none" xmlns="http://www.w3.org/2000/svg">
<rect width="33.4113" height="33.4113" rx="5.56856" fill="#E8F5E9"/>
<g clip-path="url(#clip0_211_2511)">
<path fill-rule="evenodd" clip-rule="evenodd" d="M7.20667 0.135315C11.0509 0.135315 14.1674 3.25172 14.1674 7.09601V0.135315H21.1281C24.9723 0.135315 28.0888 3.25172 28.0888 7.09601C28.0888 10.9403 24.9723 14.0567 21.1281 14.0567C24.9723 14.0567 28.0888 17.1731 28.0888 21.0174C28.0888 22.9262 27.3204 24.6556 26.0761 25.9131L26.05 25.9394L26.0269 25.9623C24.7691 27.2085 23.0385 27.9781 21.1281 27.9781C19.2306 27.9781 17.5105 27.2189 16.2549 25.9877C16.2386 25.9717 16.2223 25.9555 16.2061 25.9394C16.1908 25.9241 16.1757 25.9088 16.1606 25.8934C14.9277 24.6376 14.1674 22.9163 14.1674 21.0174C14.1674 24.8617 11.0509 27.9781 7.20667 27.9781C3.36238 27.9781 0.245972 24.8617 0.245972 21.0174V14.0567H7.20667C3.36238 14.0567 0.245972 10.9403 0.245972 7.09601C0.245972 3.25172 3.36238 0.135315 7.20667 0.135315ZM12.7752 7.09601C12.7752 10.1715 10.2821 12.6646 7.20667 12.6646V1.52745C10.2821 1.52745 12.7752 4.02058 12.7752 7.09601ZM26.6966 21.0174C26.6966 17.942 24.2035 15.4488 21.1281 15.4488C18.0526 15.4488 15.5595 17.942 15.5595 21.0174H26.6966ZM1.63811 15.4488V21.0174C1.63811 24.0928 4.13124 26.586 7.20667 26.586C10.2821 26.586 12.7752 24.0928 12.7752 21.0174V15.4488H1.63811ZM15.5595 12.6646V1.52745H21.1281C24.2035 1.52745 26.6966 4.02058 26.6966 7.09601C26.6966 10.1715 24.2035 12.6646 21.1281 12.6646H15.5595Z" fill="#5417D7"/>
</g>
<defs>
<clipPath id="clip0_211_2511">
<rect width="27.8428" height="27.8428" fill="white" transform="translate(0.245972 0.135315)"/>
</clipPath>
</defs>
</svg>
